<svg xmlns="http://www.w3.org/2000/svg" width="960" height="260" viewBox="0 0 960 260" role="img" aria-labelledby="title description">
  <title id="title">Ahmad's AI workshop</title>
  <desc id="description">An illustrated workspace: document pages, retrieval nodes, a model chip, and review tools connected by colored paths. A visual metaphor for separate AI projects.</desc>
  <defs>
    <linearGradient id="surface" x2="1" y2="1"><stop stop-color="#FFFFFF"/><stop offset="1" stop-color="#F3F0FF"/></linearGradient>
    <linearGradient id="line"><stop stop-color="#0E7490"/><stop offset=".5" stop-color="#6D28D9"/><stop offset="1" stop-color="#92400E"/></linearGradient>
    <pattern id="grid" width="24" height="24" patternUnits="userSpaceOnUse"><circle cx="1" cy="1" r="1" fill="#625B78" opacity=".16"/></pattern>
    <style></style>
  </defs>
  <rect x="1" y="1" width="958" height="258" rx="24" fill="url(#surface)" stroke="#DDD6F0"/>
  <rect x="14" y="14" width="932" height="232" rx="16" fill="url(#grid)"/>
  <ellipse cx="479" cy="139" rx="160" ry="104" fill="#6D28D9" opacity=".045"/>
  <g font-family="Segoe UI,Arial,sans-serif" font-size="12" letter-spacing="2" font-weight="600">
    <text x="32" y="36" fill="#6D28D9">AHMAD.M()</text>
    <text x="928" y="36" text-anchor="end" fill="#625B78">THE AI WORKSHOP</text>
  </g>
  <g fill="none" stroke="#DDD6F0" stroke-width="2">
    <path d="M185 130h95q24 0 24-24V84q0-20 22-20h94"/>
    <path d="M185 150h99q20 0 20 20v28q0 20 22 20h94"/>
    <path d="M539 88h69q22 0 22 22v12q0 20 22 20h88"/>
    <path d="M539 188h69q22 0 22-22v-4q0-20 22-20h88"/>
  </g>
  <g class="flow" fill="none" stroke="url(#line)" stroke-width="3" stroke-linecap="round" stroke-dasharray="12 388">
    <path d="M185 130h95q24 0 24-24V84q0-20 22-20h94"/>
    <path d="M185 150h99q20 0 20 20v28q0 20 22 20h94"/>
    <path d="M539 88h69q22 0 22 22v12q0 20 22 20h88"/>
    <path d="M539 188h69q22 0 22-22v-4q0-20 22-20h88"/>
  </g>
  <g transform="translate(80 67)">
    <g class="paper">
      <rect x="15" y="4" width="91" height="128" rx="9" fill="#F3F0FF" stroke="#DDD6F0" transform="rotate(9 60 70)"/>
      <rect x="0" y="12" width="91" height="128" rx="9" fill="#FFFFFF" stroke="#0E7490" stroke-width="1.5" transform="rotate(-6 45 75)"/>
      <path d="M18 39h42m-42 12h54m-54 15h54m-54 10h32" stroke="#625B78" stroke-width="2" stroke-linecap="round"/>
      <rect x="16" y="94" width="60" height="25" rx="4" fill="#0E7490" opacity=".12"/>
      <path d="M23 103h23m-23 8h44" stroke="#0E7490" stroke-width="2" stroke-linecap="round"/>
    </g>
  </g>
  <g fill="#FFFFFF" stroke="#0E7490" stroke-width="2">
    <circle cx="300" cy="91" r="10"/><circle cx="264" cy="202" r="6"/>
    <circle cx="356" cy="64" r="6"/><circle cx="362" cy="218" r="9"/>
  </g>
  <g transform="translate(413 73)">
    <rect x="-12" y="-12" width="156" height="156" rx="30" fill="#6D28D9" opacity=".07"/>
    <rect width="132" height="132" rx="24" fill="#FFFFFF" stroke="#6D28D9" stroke-width="2"/>
    <g stroke="#6D28D9" stroke-width="2" stroke-linecap="round">
      <path d="M34-8v8m32-8v8m32-8v8M34 132v8m32-8v8m32-8v8M-8 34h8m-8 32h8m-8 32h8M132 34h8m-8 32h8m-8 32h8"/>
    </g>
    <path d="M37 65l18-18 18 18-18 18z M60 65l18-18 18 18-18 18z" fill="none" stroke="#6D28D9" stroke-width="3" stroke-linejoin="round"/>
    <circle cx="111" cy="22" r="4" fill="#0E7490"/>
    <text x="66" y="111" text-anchor="middle" font-family="Segoe UI,Arial,sans-serif" font-size="12" letter-spacing="2" fill="#48435F">BUILD / EVAL</text>
  </g>
  <g transform="translate(744 78)">
    <rect width="138" height="123" rx="12" fill="#FFFFFF" stroke="#DDD6F0" stroke-width="1.5"/>
    <path d="M0 28h138" stroke="#DDD6F0"/>
    <g fill="#6D28D9"><circle cx="14" cy="14" r="3"/><circle cx="25" cy="14" r="3" opacity=".6"/><circle cx="36" cy="14" r="3" opacity=".3"/></g>
    <path d="M17 49l8 7-8 7m17 0h17" fill="none" stroke="#0E7490" stroke-width="2.5" stroke-linecap="round" stroke-linejoin="round"/>
    <path d="M17 83h59m-59 12h42" stroke="#625B78" stroke-width="2" stroke-linecap="round"/>
    <circle cx="112" cy="91" r="13" fill="#92400E" opacity=".12"/>
    <path d="M105 91l5 5 9-11" stroke="#92400E" stroke-width="2.5" fill="none" stroke-linecap="round" stroke-linejoin="round"/>
  </g>
  <g fill="#92400E"><circle cx="665" cy="86" r="5"/><circle cx="691" cy="192" r="4"/></g>
  <path d="M683 64v10m-5-5h10M229 63v8m-4-4h8" stroke="#6D28D9" stroke-width="1.5"/>
</svg>
