<?xml version="1.0" encoding="UTF-8"?>
<svg xmlns="http://www.w3.org/2000/svg" width="900" height="620" viewBox="0 0 900 620" role="img" aria-label="Code and activity">
<rect x="0.5" y="0.5" width="899" height="619" rx="12" fill="#ffffff" stroke="#d0d7de"/>
<text x="28" y="38" fill="#1f2328" font-size="22" font-weight="700" text-anchor="start" font-family="Segoe UI,Arial,sans-serif">Code and activity</text>
<text x="28" y="62" fill="#57606a" font-size="13" font-weight="400" text-anchor="start" font-family="Segoe UI,Arial,sans-serif">Lifetime code totals; recent metrics cover 30 days</text>
<rect x="28" y="84" width="190" height="70" rx="9" fill="#f6f8fa" stroke="#d0d7de"/>
<text x="42" y="111" fill="#57606a" font-size="13" font-weight="400" text-anchor="start" font-family="Segoe UI,Arial,sans-serif">Lines added</text>
<text x="42" y="139" fill="#1f2328" font-size="21" font-weight="700" text-anchor="start" font-family="Segoe UI,Arial,sans-serif">40,804,609</text>
<rect x="234" y="84" width="190" height="70" rx="9" fill="#f6f8fa" stroke="#d0d7de"/>
<text x="248" y="111" fill="#57606a" font-size="13" font-weight="400" text-anchor="start" font-family="Segoe UI,Arial,sans-serif">Lines removed</text>
<text x="248" y="139" fill="#1f2328" font-size="21" font-weight="700" text-anchor="start" font-family="Segoe UI,Arial,sans-serif">15,558,588</text>
<text x="28" y="190" fill="#1f2328" font-size="16" font-weight="600" text-anchor="start" font-family="Segoe UI,Arial,sans-serif">Recently active repositories</text>
<svg x="28" y="207" width="414" height="18" viewBox="0 0 414 18" overflow="hidden"><title>pypi-ahmad.github.io  2026-09-23</title><text x="0" y="13" fill="#24292f" font-size="13" font-weight="400" text-anchor="start" font-family="Segoe UI,Arial,sans-serif">pypi-ahmad.github.io  2026-09-23</text></svg>
<svg x="28" y="232" width="414" height="18" viewBox="0 0 414 18" overflow="hidden"><title>Coding-Tutor  2026-09-23</title><text x="0" y="13" fill="#24292f" font-size="13" font-weight="400" text-anchor="start" font-family="Segoe UI,Arial,sans-serif">Coding-Tutor  2026-09-23</text></svg>
<svg x="28" y="257" width="414" height="18" viewBox="0 0 414 18" overflow="hidden"><title>OpenAI-X-RapidOCR-Agentic-Document_extraction  2026-09-23</title><text x="0" y="13" fill="#24292f" font-size="13" font-weight="400" text-anchor="start" font-family="Segoe UI,Arial,sans-serif">OpenAI-X-RapidOCR-Agentic-Document_extraction  2026-09-23</text></svg>
<svg x="28" y="282" width="414" height="18" viewBox="0 0 414 18" overflow="hidden"><title>Agentic-Document-Extraction  2026-09-23</title><text x="0" y="13" fill="#24292f" font-size="13" font-weight="400" text-anchor="start" font-family="Segoe UI,Arial,sans-serif">Agentic-Document-Extraction  2026-09-23</text></svg>
<svg x="28" y="307" width="414" height="18" viewBox="0 0 414 18" overflow="hidden"><title>NaviDC-OCR-Agentic-Document-Extraction  2026-09-23</title><text x="0" y="13" fill="#24292f" font-size="13" font-weight="400" text-anchor="start" font-family="Segoe UI,Arial,sans-serif">NaviDC-OCR-Agentic-Document-Extraction  2026-09-23</text></svg>
<text x="470" y="190" fill="#1f2328" font-size="16" font-weight="600" text-anchor="start" font-family="Segoe UI,Arial,sans-serif">Recently used languages</text>
<svg x="470" y="211" width="97" height="17" viewBox="0 0 97 17" overflow="hidden"><title>HTML</title><text x="0" y="12" fill="#24292f" font-size="12" font-weight="400" text-anchor="start" font-family="Segoe UI,Arial,sans-serif">HTML</text></svg>
<rect x="575" y="210" width="260" height="14" rx="4" fill="#f6f8fa"/>
<rect x="575" y="210" width="260.0" height="14" rx="4" fill="#0969da"/>
<svg x="470" y="238" width="97" height="17" viewBox="0 0 97 17" overflow="hidden"><title>Python</title><text x="0" y="12" fill="#24292f" font-size="12" font-weight="400" text-anchor="start" font-family="Segoe UI,Arial,sans-serif">Python</text></svg>
<rect x="575" y="237" width="260" height="14" rx="4" fill="#f6f8fa"/>
<rect x="575" y="237" width="237.4" height="14" rx="4" fill="#0969da"/>
<svg x="470" y="265" width="97" height="17" viewBox="0 0 97 17" overflow="hidden"><title>Jupyter Notebook</title><text x="0" y="12" fill="#24292f" font-size="12" font-weight="400" text-anchor="start" font-family="Segoe UI,Arial,sans-serif">Jupyter Noteb…</text></svg>
<rect x="575" y="264" width="260" height="14" rx="4" fill="#f6f8fa"/>
<rect x="575" y="264" width="34.2" height="14" rx="4" fill="#0969da"/>
<svg x="470" y="292" width="97" height="17" viewBox="0 0 97 17" overflow="hidden"><title>JavaScript</title><text x="0" y="12" fill="#24292f" font-size="12" font-weight="400" text-anchor="start" font-family="Segoe UI,Arial,sans-serif">JavaScript</text></svg>
<rect x="575" y="291" width="260" height="14" rx="4" fill="#f6f8fa"/>
<rect x="575" y="291" width="15.8" height="14" rx="4" fill="#0969da"/>
<svg x="470" y="319" width="97" height="17" viewBox="0 0 97 17" overflow="hidden"><title>TypeScript</title><text x="0" y="12" fill="#24292f" font-size="12" font-weight="400" text-anchor="start" font-family="Segoe UI,Arial,sans-serif">TypeScript</text></svg>
<rect x="575" y="318" width="260" height="14" rx="4" fill="#f6f8fa"/>
<rect x="575" y="318" width="3.7" height="14" rx="4" fill="#0969da"/>
<text x="28" y="372" fill="#1f2328" font-size="16" font-weight="600" text-anchor="start" font-family="Segoe UI,Arial,sans-serif">Commit habits (Asia/Kolkata)</text>
<svg x="28" y="397" width="97" height="17" viewBox="0 0 97 17" overflow="hidden"><title>Mon</title><text x="0" y="12" fill="#24292f" font-size="12" font-weight="400" text-anchor="start" font-family="Segoe UI,Arial,sans-serif">Mon</text></svg>
<rect x="133" y="396" width="250" height="14" rx="4" fill="#f6f8fa"/>
<rect x="133" y="396" width="248.7" height="14" rx="4" fill="#1a7f37"/>
<svg x="28" y="424" width="97" height="17" viewBox="0 0 97 17" overflow="hidden"><title>Tue</title><text x="0" y="12" fill="#24292f" font-size="12" font-weight="400" text-anchor="start" font-family="Segoe UI,Arial,sans-serif">Tue</text></svg>
<rect x="133" y="423" width="250" height="14" rx="4" fill="#f6f8fa"/>
<rect x="133" y="423" width="95.5" height="14" rx="4" fill="#1a7f37"/>
<svg x="28" y="451" width="97" height="17" viewBox="0 0 97 17" overflow="hidden"><title>Wed</title><text x="0" y="12" fill="#24292f" font-size="12" font-weight="400" text-anchor="start" font-family="Segoe UI,Arial,sans-serif">Wed</text></svg>
<rect x="133" y="450" width="250" height="14" rx="4" fill="#f6f8fa"/>
<rect x="133" y="450" width="246.1" height="14" rx="4" fill="#1a7f37"/>
<svg x="28" y="478" width="97" height="17" viewBox="0 0 97 17" overflow="hidden"><title>Thu</title><text x="0" y="12" fill="#24292f" font-size="12" font-weight="400" text-anchor="start" font-family="Segoe UI,Arial,sans-serif">Thu</text></svg>
<rect x="133" y="477" width="250" height="14" rx="4" fill="#f6f8fa"/>
<rect x="133" y="477" width="11.8" height="14" rx="4" fill="#1a7f37"/>
<svg x="28" y="505" width="97" height="17" viewBox="0 0 97 17" overflow="hidden"><title>Fri</title><text x="0" y="12" fill="#24292f" font-size="12" font-weight="400" text-anchor="start" font-family="Segoe UI,Arial,sans-serif">Fri</text></svg>
<rect x="133" y="504" width="250" height="14" rx="4" fill="#f6f8fa"/>
<rect x="133" y="504" width="13.1" height="14" rx="4" fill="#1a7f37"/>
<svg x="28" y="532" width="97" height="17" viewBox="0 0 97 17" overflow="hidden"><title>Sat</title><text x="0" y="12" fill="#24292f" font-size="12" font-weight="400" text-anchor="start" font-family="Segoe UI,Arial,sans-serif">Sat</text></svg>
<rect x="133" y="531" width="250" height="14" rx="4" fill="#f6f8fa"/>
<rect x="133" y="531" width="40.6" height="14" rx="4" fill="#1a7f37"/>
<svg x="28" y="559" width="97" height="17" viewBox="0 0 97 17" overflow="hidden"><title>Sun</title><text x="0" y="12" fill="#24292f" font-size="12" font-weight="400" text-anchor="start" font-family="Segoe UI,Arial,sans-serif">Sun</text></svg>
<rect x="133" y="558" width="250" height="14" rx="4" fill="#f6f8fa"/>
<rect x="133" y="558" width="250.0" height="14" rx="4" fill="#1a7f37"/>
<rect x="450" y="493.6" width="11" height="42.4" fill="#0969da"/>
<text x="455" y="554" fill="#57606a" font-size="9" font-weight="400" text-anchor="middle" font-family="Segoe UI,Arial,sans-serif">00</text>
<rect x="467" y="522.6" width="11" height="13.4" fill="#0969da"/>
<rect x="484" y="514.0" width="11" height="22.0" fill="#0969da"/>
<rect x="501" y="512.4" width="11" height="23.6" fill="#0969da"/>
<text x="506" y="554" fill="#57606a" font-size="9" font-weight="400" text-anchor="middle" font-family="Segoe UI,Arial,sans-serif">03</text>
<rect x="518" y="528.1" width="11" height="7.9" fill="#0969da"/>
<rect x="535" y="532.1" width="11" height="3.9" fill="#0969da"/>
<rect x="552" y="536.0" width="11" height="0.0" fill="#0969da"/>
<text x="557" y="554" fill="#57606a" font-size="9" font-weight="400" text-anchor="middle" font-family="Segoe UI,Arial,sans-serif">06</text>
<rect x="569" y="536.0" width="11" height="0.0" fill="#0969da"/>
<rect x="586" y="517.1" width="11" height="18.9" fill="#0969da"/>
<rect x="603" y="536.0" width="11" height="0.0" fill="#0969da"/>
<text x="608" y="554" fill="#57606a" font-size="9" font-weight="400" text-anchor="middle" font-family="Segoe UI,Arial,sans-serif">09</text>
<rect x="620" y="536.0" width="11" height="0.0" fill="#0969da"/>
<rect x="637" y="536.0" width="11" height="0.0" fill="#0969da"/>
<rect x="654" y="530.5" width="11" height="5.5" fill="#0969da"/>
<text x="659" y="554" fill="#57606a" font-size="9" font-weight="400" text-anchor="middle" font-family="Segoe UI,Arial,sans-serif">12</text>
<rect x="671" y="512.4" width="11" height="23.6" fill="#0969da"/>
<rect x="688" y="455.9" width="11" height="80.1" fill="#0969da"/>
<rect x="705" y="426.0" width="11" height="110.0" fill="#0969da"/>
<text x="710" y="554" fill="#57606a" font-size="9" font-weight="400" text-anchor="middle" font-family="Segoe UI,Arial,sans-serif">15</text>
<rect x="722" y="506.1" width="11" height="29.9" fill="#0969da"/>
<rect x="739" y="510.1" width="11" height="25.9" fill="#0969da"/>
<rect x="756" y="517.9" width="11" height="18.1" fill="#0969da"/>
<text x="761" y="554" fill="#57606a" font-size="9" font-weight="400" text-anchor="middle" font-family="Segoe UI,Arial,sans-serif">18</text>
<rect x="773" y="505.4" width="11" height="30.6" fill="#0969da"/>
<rect x="790" y="482.6" width="11" height="53.4" fill="#0969da"/>
<rect x="807" y="512.4" width="11" height="23.6" fill="#0969da"/>
<text x="812" y="554" fill="#57606a" font-size="9" font-weight="400" text-anchor="middle" font-family="Segoe UI,Arial,sans-serif">21</text>
<rect x="824" y="530.5" width="11" height="5.5" fill="#0969da"/>
<rect x="841" y="530.5" width="11" height="5.5" fill="#0969da"/>
<text x="28" y="602" fill="#57606a" font-size="12" font-weight="400" text-anchor="start" font-family="Segoe UI,Arial,sans-serif">Generated 2026-09-24 02:57 UTC · 146 public owned repositories · line coverage 146/146</text>
</svg>