<?xml version="1.0" encoding="UTF-8"?>
<svg xmlns="http://www.w3.org/2000/svg" width="900" height="510" viewBox="0 0 900 510" role="img" aria-label="Reach and collaboration">
<rect x="0.5" y="0.5" width="899" height="509" rx="12" fill="#0d1117" stroke="#30363d"/>
<text x="28" y="38" fill="#f0f6fc" font-size="22" font-weight="700" text-anchor="start" font-family="Segoe UI,Arial,sans-serif">Reach and collaboration</text>
<text x="28" y="62" fill="#8b949e" font-size="13" font-weight="400" text-anchor="start" font-family="Segoe UI,Arial,sans-serif">Lifetime profile metrics and star growth</text>
<rect x="28" y="84" width="190" height="70" rx="9" fill="#161b22" stroke="#30363d"/>
<text x="42" y="111" fill="#8b949e" font-size="13" font-weight="400" text-anchor="start" font-family="Segoe UI,Arial,sans-serif">Stars</text>
<text x="42" y="139" fill="#f0f6fc" font-size="21" font-weight="700" text-anchor="start" font-family="Segoe UI,Arial,sans-serif">12</text>
<rect x="234" y="84" width="190" height="70" rx="9" fill="#161b22" stroke="#30363d"/>
<text x="248" y="111" fill="#8b949e" font-size="13" font-weight="400" text-anchor="start" font-family="Segoe UI,Arial,sans-serif">Forks</text>
<text x="248" y="139" fill="#f0f6fc" font-size="21" font-weight="700" text-anchor="start" font-family="Segoe UI,Arial,sans-serif">5</text>
<rect x="440" y="84" width="190" height="70" rx="9" fill="#161b22" stroke="#30363d"/>
<text x="454" y="111" fill="#8b949e" font-size="13" font-weight="400" text-anchor="start" font-family="Segoe UI,Arial,sans-serif">Watchers</text>
<text x="454" y="139" fill="#f0f6fc" font-size="21" font-weight="700" text-anchor="start" font-family="Segoe UI,Arial,sans-serif">21</text>
<rect x="646" y="84" width="190" height="70" rx="9" fill="#161b22" stroke="#30363d"/>
<text x="660" y="111" fill="#8b949e" font-size="13" font-weight="400" text-anchor="start" font-family="Segoe UI,Arial,sans-serif">PR reviews</text>
<text x="660" y="139" fill="#f0f6fc" font-size="21" font-weight="700" text-anchor="start" font-family="Segoe UI,Arial,sans-serif">0</text>
<rect x="28" y="166" width="190" height="70" rx="9" fill="#161b22" stroke="#30363d"/>
<text x="42" y="193" fill="#8b949e" font-size="13" font-weight="400" text-anchor="start" font-family="Segoe UI,Arial,sans-serif">PRs merged</text>
<text x="42" y="221" fill="#f0f6fc" font-size="21" font-weight="700" text-anchor="start" font-family="Segoe UI,Arial,sans-serif">17/29 (59%)</text>
<rect x="234" y="166" width="190" height="70" rx="9" fill="#161b22" stroke="#30363d"/>
<text x="248" y="193" fill="#8b949e" font-size="13" font-weight="400" text-anchor="start" font-family="Segoe UI,Arial,sans-serif">Issues open / closed</text>
<text x="248" y="221" fill="#f0f6fc" font-size="21" font-weight="700" text-anchor="start" font-family="Segoe UI,Arial,sans-serif">1 / 2</text>
<rect x="440" y="166" width="190" height="70" rx="9" fill="#161b22" stroke="#30363d"/>
<text x="454" y="193" fill="#8b949e" font-size="13" font-weight="400" text-anchor="start" font-family="Segoe UI,Arial,sans-serif">External repositories</text>
<text x="454" y="221" fill="#f0f6fc" font-size="21" font-weight="700" text-anchor="start" font-family="Segoe UI,Arial,sans-serif">7</text>
<text x="28" y="276" fill="#f0f6fc" font-size="16" font-weight="600" text-anchor="start" font-family="Segoe UI,Arial,sans-serif">Stars gained over time</text>
<rect x="28" y="292" width="520" height="120" rx="8" fill="#161b22" stroke="#30363d"/>
<polyline points="44.0,392.0 50.9,392.0 57.7,392.0 64.6,392.0 71.5,392.0 78.4,392.0 85.2,392.0 92.1,392.0 99.0,392.0 105.9,392.0 112.7,392.0 119.6,392.0 126.5,392.0 133.4,392.0 140.2,392.0 147.1,392.0 154.0,392.0 160.8,392.0 167.7,392.0 174.6,385.2 181.5,385.2 188.3,385.2 195.2,385.2 202.1,385.2 209.0,385.2 215.8,385.2 222.7,385.2 229.6,385.2 236.5,385.2 243.3,385.2 250.2,385.2 257.1,385.2 263.9,385.2 270.8,385.2 277.7,385.2 284.6,385.2 291.4,385.2 298.3,385.2 305.2,385.2 312.1,385.2 318.9,385.2 325.8,385.2 332.7,385.2 339.5,385.2 346.4,385.2 353.3,385.2 360.2,385.2 367.0,385.2 373.9,385.2 380.8,385.2 387.7,378.3 394.5,378.3 401.4,378.3 408.3,378.3 415.2,378.3 422.0,378.3 428.9,378.3 435.8,378.3 442.6,378.3 449.5,378.3 456.4,378.3 463.3,378.3 470.1,378.3 477.0,378.3 483.9,378.3 490.8,378.3 497.6,364.7 504.5,357.8 511.4,351.0 518.3,351.0 525.1,323.7 532.0,310.0" fill="none" stroke="#58a6ff" stroke-width="3" stroke-linejoin="round"/>
<text x="570" y="276" fill="#f0f6fc" font-size="16" font-weight="600" text-anchor="start" font-family="Segoe UI,Arial,sans-serif">Recent external contributions</text>
<text x="570" y="306" fill="#c9d1d9" font-size="13" font-weight="400" text-anchor="start" font-family="Segoe UI,Arial,sans-serif">ashisaxena710/Play-Store-App-Review-Analysis-</text>
<text x="570" y="331" fill="#c9d1d9" font-size="13" font-weight="400" text-anchor="start" font-family="Segoe UI,Arial,sans-serif">ashisaxena710/Retail-Sales-Prediction</text>
<text x="570" y="356" fill="#c9d1d9" font-size="13" font-weight="400" text-anchor="start" font-family="Segoe UI,Arial,sans-serif">ashisaxena710/Cardiovascular-Risk-Prediction</text>
<text x="570" y="381" fill="#c9d1d9" font-size="13" font-weight="400" text-anchor="start" font-family="Segoe UI,Arial,sans-serif">ashisaxena710/Netflix_Movies_and_TV_Shows_Clustering</text>
<text x="570" y="406" fill="#c9d1d9" font-size="13" font-weight="400" text-anchor="start" font-family="Segoe UI,Arial,sans-serif">PRITHIVSAKTHIUR/Multimodal-OCR</text>
<text x="28" y="492" fill="#8b949e" font-size="12" font-weight="400" text-anchor="start" font-family="Segoe UI,Arial,sans-serif">Generated 2026-08-16 00:26 UTC · 119 public owned repositories</text>
</svg>