<?xml version="1.0" encoding="UTF-8"?>
<svg xmlns="http://www.w3.org/2000/svg" width="900" height="510" viewBox="0 0 900 510" role="img" aria-label="Reach and collaboration">
<rect x="0.5" y="0.5" width="899" height="509" rx="12" fill="#0d1117" stroke="#30363d"/>
<text x="28" y="38" fill="#f0f6fc" font-size="22" font-weight="700" text-anchor="start" font-family="Segoe UI,Arial,sans-serif">Reach and collaboration</text>
<text x="28" y="62" fill="#8b949e" font-size="13" font-weight="400" text-anchor="start" font-family="Segoe UI,Arial,sans-serif">Lifetime profile metrics and star growth</text>
<rect x="28" y="84" width="190" height="70" rx="9" fill="#161b22" stroke="#30363d"/>
<text x="42" y="111" fill="#8b949e" font-size="13" font-weight="400" text-anchor="start" font-family="Segoe UI,Arial,sans-serif">Stars</text>
<text x="42" y="139" fill="#f0f6fc" font-size="21" font-weight="700" text-anchor="start" font-family="Segoe UI,Arial,sans-serif">16</text>
<rect x="234" y="84" width="190" height="70" rx="9" fill="#161b22" stroke="#30363d"/>
<text x="248" y="111" fill="#8b949e" font-size="13" font-weight="400" text-anchor="start" font-family="Segoe UI,Arial,sans-serif">Forks</text>
<text x="248" y="139" fill="#f0f6fc" font-size="21" font-weight="700" text-anchor="start" font-family="Segoe UI,Arial,sans-serif">5</text>
<rect x="440" y="84" width="190" height="70" rx="9" fill="#161b22" stroke="#30363d"/>
<text x="454" y="111" fill="#8b949e" font-size="13" font-weight="400" text-anchor="start" font-family="Segoe UI,Arial,sans-serif">Watchers</text>
<text x="454" y="139" fill="#f0f6fc" font-size="21" font-weight="700" text-anchor="start" font-family="Segoe UI,Arial,sans-serif">21</text>
<rect x="646" y="84" width="190" height="70" rx="9" fill="#161b22" stroke="#30363d"/>
<text x="660" y="111" fill="#8b949e" font-size="13" font-weight="400" text-anchor="start" font-family="Segoe UI,Arial,sans-serif">PR reviews</text>
<text x="660" y="139" fill="#f0f6fc" font-size="21" font-weight="700" text-anchor="start" font-family="Segoe UI,Arial,sans-serif">0</text>
<rect x="28" y="166" width="190" height="70" rx="9" fill="#161b22" stroke="#30363d"/>
<text x="42" y="193" fill="#8b949e" font-size="13" font-weight="400" text-anchor="start" font-family="Segoe UI,Arial,sans-serif">PRs merged</text>
<text x="42" y="221" fill="#f0f6fc" font-size="21" font-weight="700" text-anchor="start" font-family="Segoe UI,Arial,sans-serif">21/36 (58%)</text>
<rect x="234" y="166" width="190" height="70" rx="9" fill="#161b22" stroke="#30363d"/>
<text x="248" y="193" fill="#8b949e" font-size="13" font-weight="400" text-anchor="start" font-family="Segoe UI,Arial,sans-serif">Issues open / closed</text>
<text x="248" y="221" fill="#f0f6fc" font-size="21" font-weight="700" text-anchor="start" font-family="Segoe UI,Arial,sans-serif">1 / 3</text>
<rect x="440" y="166" width="190" height="70" rx="9" fill="#161b22" stroke="#30363d"/>
<text x="454" y="193" fill="#8b949e" font-size="13" font-weight="400" text-anchor="start" font-family="Segoe UI,Arial,sans-serif">External repositories</text>
<text x="454" y="221" fill="#f0f6fc" font-size="21" font-weight="700" text-anchor="start" font-family="Segoe UI,Arial,sans-serif">7</text>
<text x="28" y="276" fill="#f0f6fc" font-size="16" font-weight="600" text-anchor="start" font-family="Segoe UI,Arial,sans-serif">Stars gained over time</text>
<rect x="28" y="292" width="520" height="120" rx="8" fill="#161b22" stroke="#30363d"/>
<polyline points="44.0,392.0 50.8,392.0 57.6,392.0 64.3,392.0 71.1,392.0 77.9,392.0 84.7,392.0 91.4,392.0 98.2,392.0 105.0,392.0 111.8,392.0 118.6,392.0 125.3,392.0 132.1,392.0 138.9,392.0 145.7,392.0 152.4,392.0 159.2,392.0 166.0,392.0 172.8,386.9 179.6,386.9 186.3,386.9 193.1,386.9 199.9,386.9 206.7,386.9 213.4,386.9 220.2,386.9 227.0,386.9 233.8,386.9 240.6,386.9 247.3,386.9 254.1,386.9 260.9,386.9 267.7,386.9 274.4,386.9 281.2,386.9 288.0,386.9 294.8,386.9 301.6,386.9 308.3,386.9 315.1,386.9 321.9,386.9 328.7,386.9 335.4,386.9 342.2,386.9 349.0,386.9 355.8,386.9 362.6,386.9 369.3,386.9 376.1,386.9 382.9,381.8 389.7,381.8 396.4,381.8 403.2,381.8 410.0,381.8 416.8,381.8 423.6,381.8 430.3,381.8 437.1,381.8 443.9,381.8 450.7,381.8 457.4,381.8 464.2,381.8 471.0,381.8 477.8,381.8 484.6,381.8 491.3,371.5 498.1,371.5 504.9,366.4 511.7,366.4 518.4,345.9 525.2,315.1 532.0,310.0" fill="none" stroke="#58a6ff" stroke-width="3" stroke-linejoin="round"/>
<text x="570" y="276" fill="#f0f6fc" font-size="16" font-weight="600" text-anchor="start" font-family="Segoe UI,Arial,sans-serif">Recent external contributions</text>
<text x="570" y="306" fill="#c9d1d9" font-size="13" font-weight="400" text-anchor="start" font-family="Segoe UI,Arial,sans-serif">ashisaxena710/Play-Store-App-Review-Analysis-</text>
<text x="570" y="331" fill="#c9d1d9" font-size="13" font-weight="400" text-anchor="start" font-family="Segoe UI,Arial,sans-serif">ashisaxena710/Retail-Sales-Prediction</text>
<text x="570" y="356" fill="#c9d1d9" font-size="13" font-weight="400" text-anchor="start" font-family="Segoe UI,Arial,sans-serif">ashisaxena710/Cardiovascular-Risk-Prediction</text>
<text x="570" y="381" fill="#c9d1d9" font-size="13" font-weight="400" text-anchor="start" font-family="Segoe UI,Arial,sans-serif">ashisaxena710/Netflix_Movies_and_TV_Shows_Clustering</text>
<text x="570" y="406" fill="#c9d1d9" font-size="13" font-weight="400" text-anchor="start" font-family="Segoe UI,Arial,sans-serif">PRITHIVSAKTHIUR/Multimodal-OCR</text>
<text x="28" y="492" fill="#8b949e" font-size="12" font-weight="400" text-anchor="start" font-family="Segoe UI,Arial,sans-serif">Generated 2026-09-09 02:51 UTC · 132 public owned repositories</text>
</svg>